# xmcd
# 
# Track frame offsets:
#     150
#     10656
#     22471
#     38182
#     50044
#     65218
#     76448
#     89502
#     101031
#     115228
#     133999
#     149357
# 
# Disc length: 2133
# 
# Revision: 1
# Processed by: cddbd v1.5.2PL0 Copyright (c) Steve Scherf et al.
# Submitted via: fre:ac v1.0.31
# 
DISCID=b608530c
DTITLE=Leon Redbone - Flying By
DYEAR=2013
DGENRE=Blues
TTITLE0=Just You And I
TTITLE1=Baby Won't You Please Gome Home
TTITLE2=Wanna Go Back Again Blues
TTITLE3=Main Street
TTITLE4=Get Out Get Under The Moon
TTITLE5=Police Dog Blues
TTITLE6=I'll See You In My Dreams
TTITLE7=Where Shall I Be?
TTITLE8=When The Lights Are Soft And Low
TTITLE9=Mr. Jelly Lord
TTITLE10=Save Your Sorrow
TTITLE11=But Where Are You
EXTD=YEAR: 2013
EXTT0=
EXTT1=
EXTT2=
EXTT3=
EXTT4=
EXTT5=
EXTT6=
EXTT7=
EXTT8=
EXTT9=
EXTT10=
EXTT11=
PLAYORDER=
